<svg width="634" height="313" fill="none" xmlns="http://www.w3.org/2000/svg"><path opacity=".64" d="M437.078 312.741c-105.284-5.993-209.442-33.43-302.352-83.505C85.781 203.434 41.863 169.323.702 132.578l1.223-.891c26.076-18.996 52.2-38.027 80.324-53.92C149.044 39.69 222.69 13.774 298.417.728c180.896 12.443 343.519 91.335 463.64 212.446a609.015 609.015 0 01-49.68.469c-2.998.086-6.116-.192-9.253-.471h-.002c-8.031-.716-16.184-1.442-22.753 3.903-73.291 48.578-156.943 79.87-243.291 95.666z" fill="#000"/></svg>